<svg width="24" height="24" viewBox="0 0 24 24" fill="none" xmlns="http://www.w3.org/2000/svg">
<g clip-path="url(#clip0_9_151)">
<path d="M22.942 6.83705L20.76 4.65405L21.707 3.70705C21.8025 3.6148 21.8787 3.50446 21.9311 3.38245C21.9835 3.26045 22.0111 3.12923 22.0123 2.99645C22.0134 2.86367 21.9881 2.73199 21.9378 2.6091C21.8875 2.4862 21.8133 2.37455 21.7194 2.28065C21.6255 2.18676 21.5138 2.11251 21.391 2.06223C21.2681 2.01195 21.1364 1.98665 21.0036 1.9878C20.8708 1.98895 20.7396 2.01654 20.6176 2.06895C20.4956 2.12136 20.3852 2.19754 20.293 2.29305L19.346 3.24005L17.163 1.05805C16.4749 0.402372 15.5609 0.0366211 14.6105 0.0366211C13.6601 0.0366211 12.7461 0.402372 12.058 1.05805C11.7226 1.39322 11.4565 1.7912 11.2749 2.22926C11.0933 2.66732 10.9999 3.13686 10.9999 3.61105C10.9999 4.08524 11.0933 4.55478 11.2749 4.99284C11.4565 5.4309 11.7226 5.82888 12.058 6.16405L14.24 8.34605L8.346 14.24L6.163 12.058C5.47494 11.4024 4.56094 11.0366 3.6105 11.0366C2.66006 11.0366 1.74606 11.4024 1.058 12.058C0.722559 12.3932 0.456456 12.7912 0.2749 13.2293C0.0933452 13.6673 -0.000102997 14.1369 -0.000102997 14.611C-0.000102997 15.0852 0.0933452 15.5548 0.2749 15.9928C0.456456 16.4309 0.722559 16.8289 1.058 17.164L3.24 19.3461L2.293 20.293C2.19749 20.3853 2.12131 20.4956 2.0689 20.6176C2.01649 20.7396 1.9889 20.8709 1.98775 21.0036C1.9866 21.1364 2.0119 21.2681 2.06218 21.391C2.11246 21.5139 2.18671 21.6256 2.28061 21.7194C2.3745 21.8133 2.48615 21.8876 2.60905 21.9379C2.73194 21.9882 2.86362 22.0135 2.9964 22.0123C3.12918 22.0111 3.2604 21.9836 3.38241 21.9312C3.50441 21.8787 3.61475 21.8026 3.707 21.7071L4.654 20.76L6.837 22.942C7.17215 23.2773 7.57007 23.5433 8.00804 23.7248C8.446 23.9063 8.91543 23.9997 9.3895 23.9997C9.86357 23.9997 10.333 23.9063 10.771 23.7248C11.2089 23.5433 11.6069 23.2773 11.942 22.942C12.2774 22.607 12.5435 22.2091 12.725 21.7711C12.9066 21.3331 13 20.8637 13 20.3895C13 19.9154 12.9066 19.446 12.725 19.008C12.5435 18.57 12.2774 18.1721 11.942 17.837L9.76 15.655L15.66 9.76005L17.842 11.942C18.1771 12.2773 18.5751 12.5433 19.013 12.7248C19.451 12.9063 19.9204 12.9997 20.3945 12.9997C20.8686 12.9997 21.338 12.9063 21.776 12.7248C22.2139 12.5433 22.6119 12.2773 22.947 11.942C23.2824 11.607 23.5485 11.2091 23.73 10.7711C23.9116 10.3331 24.005 9.86366 24.005 9.38955C24.005 8.91544 23.9116 8.44598 23.73 8.00801C23.5485 7.57003 23.2824 7.17213 22.947 6.83705H22.942ZM11 20.39C11.0004 20.6015 10.9589 20.811 10.8779 21.0063C10.7969 21.2016 10.678 21.379 10.528 21.528C10.2215 21.8213 9.81367 21.9849 9.3895 21.9849C8.96533 21.9849 8.55751 21.8213 8.251 21.528L2.472 15.749C2.17005 15.4471 2.00042 15.0376 2.00042 14.6105C2.00042 14.1835 2.17005 13.774 2.472 13.472C2.77395 13.1701 3.18348 13.0005 3.6105 13.0005C4.03752 13.0005 4.44705 13.1701 4.749 13.472L10.528 19.251C10.6781 19.4003 10.7971 19.5777 10.8781 19.7733C10.9591 19.9688 11.0006 20.1784 11 20.39ZM21.528 10.528C21.2215 10.8213 20.8137 10.9849 20.3895 10.9849C19.9653 10.9849 19.5575 10.8213 19.251 10.528L13.472 4.74905C13.3225 4.59954 13.2039 4.42205 13.123 4.2267C13.0421 4.03136 13.0004 3.82199 13.0004 3.61055C13.0004 3.39911 13.0421 3.18974 13.123 2.9944C13.2039 2.79905 13.3225 2.62156 13.472 2.47205C13.6215 2.32254 13.799 2.20394 13.9943 2.12303C14.1897 2.04211 14.3991 2.00047 14.6105 2.00047C14.8219 2.00047 15.0313 2.04211 15.2267 2.12303C15.422 2.20394 15.5995 2.32254 15.749 2.47205L21.528 8.25105C21.6776 8.40049 21.7964 8.57796 21.8773 8.77331C21.9583 8.96867 22 9.17807 22 9.38955C22 9.60103 21.9583 9.81043 21.8773 10.0058C21.7964 10.2011 21.6776 10.3786 21.528 10.528Z" fill="#A3A3A3"/>
</g>
<defs>
<clipPath id="clip0_9_151">
<rect width="24" height="24" fill="white"/>
</clipPath>
</defs>
</svg>
